<?xml version="1.0" encoding="UTF-8" standalone="no"?>
<!-- Created with Inkscape (http://www.inkscape.org/) -->

<svg
   xmlns:dc="http://purl.org/dc/elements/1.1/"
   xmlns:cc="http://creativecommons.org/ns#"
   xmlns:rdf="http://www.w3.org/1999/02/22-rdf-syntax-ns#"
   xmlns:svg="http://www.w3.org/2000/svg"
   xmlns="http://www.w3.org/2000/svg"
   xmlns:sodipodi="http://sodipodi.sourceforge.net/DTD/sodipodi-0.dtd"
   xmlns:inkscape="http://www.inkscape.org/namespaces/inkscape"
   width="744.09448819"
   height="1052.3622047"
   id="svg2"
   version="1.1"
   inkscape:version="0.48.4 r9939"
   sodipodi:docname="logo.svg"
   inkscape:export-filename="/opt/lampp/htdocs/projects/oficina-marcenaria/docs/logo.png"
   inkscape:export-xdpi="295.29001"
   inkscape:export-ydpi="295.29001">
  <defs
     id="defs4">
    <inkscape:path-effect
       effect="bend_path"
       id="path-effect3822"
       is_visible="true"
       bendpath="m 361.9571,710.93798 c 83.5574,0 129.69378,8.64923 129.69378,-52.09283"
       prop_scale="1"
       scale_y_rel="false"
       vertical="false"
       bendpath-nodetypes="cc" />
  </defs>
  <sodipodi:namedview
     id="base"
     pagecolor="#ffffff"
     bordercolor="#666666"
     borderopacity="1.0"
     inkscape:pageopacity="0.0"
     inkscape:pageshadow="2"
     inkscape:zoom="1"
     inkscape:cx="387.80398"
     inkscape:cy="443.04253"
     inkscape:document-units="px"
     inkscape:current-layer="g3825"
     showgrid="false"
     showborder="false"
     showguides="true"
     inkscape:guide-bbox="true"
     inkscape:window-width="1366"
     inkscape:window-height="715"
     inkscape:window-x="0"
     inkscape:window-y="30"
     inkscape:window-maximized="1" />
  <metadata
     id="metadata7">
    <rdf:RDF>
      <cc:Work
         rdf:about="">
        <dc:format>image/svg+xml</dc:format>
        <dc:type
           rdf:resource="http://purl.org/dc/dcmitype/StillImage" />
        <dc:title />
      </cc:Work>
    </rdf:RDF>
  </metadata>
  <g
     inkscape:label="Layer 1"
     inkscape:groupmode="layer"
     id="layer1">
    <g
       id="g3825"
       style="fill:#636363;fill-opacity:1"
       transform="matrix(4.1156727,0,0,4.1156727,-1463.7398,-2292.617)">
      <g
         id="g3772"
         style="fill:#636363;fill-opacity:1">
        <rect
           style="fill:#636363;fill-opacity:1;stroke:none"
           id="rect3801"
           width="181.25"
           height="9.25"
           x="361.95709"
           y="667.56293" />
        <rect
           y="680.47961"
           x="361.95709"
           height="9.25"
           width="181.25"
           id="rect3803"
           style="fill:#636363;fill-opacity:1;stroke:none" />
        <rect
           style="fill:#636363;fill-opacity:1;stroke:none"
           id="rect3805"
           width="181.25"
           height="9.25"
           x="361.95709"
           y="693.3963" />
        <rect
           y="706.31293"
           x="361.95709"
           height="9.25"
           width="181.25"
           id="rect3807"
           style="fill:#636363;fill-opacity:1;stroke:none" />
        <path
           style="fill:#636363;fill-opacity:1;stroke:none"
           d="m 361.9571,706.31298 c 18.59944,2.6e-4 37.09052,0.56178 55.47566,0.40252 13.60196,-0.15025 27.03039,-0.38687 39.59588,-3.53564 0,0 0,0 0,0 4.75663,-1.19583 9.30945,-2.78237 13.26957,-5.1433 3.56623,-2.11097 6.73156,-4.87464 9.09979,-8.14927 0,0 0,-10e-6 0,-10e-6 2.6468,-3.58461 4.43227,-7.93149 5.62619,-12.50898 1.52369,-5.88297 1.98387,-12.1548 2.00169,-18.53315 l 9.25,0 c 0.0178,6.85205 -0.53831,13.8871 -2.28955,20.82281 -1.37279,5.46911 -3.65332,10.86806 -7.11136,15.66518 -3.20252,4.37381 -7.29452,7.97845 -11.87979,10.67217 -5.01335,2.92825 -10.39225,4.85185 -15.74779,6.15451 -10e-6,0 -10e-6,0 -10e-6,0 -13.91735,3.39452 -28.05885,3.72103 -41.73508,3.80534 -18.62527,0.15897 -37.14286,-0.40244 -55.5552,-0.40218 0,-3.08333 0,-6.16667 0,-9.25 z"
           id="rect3819"
           inkscape:connector-curvature="0"
           inkscape:path-effect="#path-effect3822"
           inkscape:original-d="m 361.9571,706.31298 181.25,0 0,9.25 -181.25,0 z" />
      </g>
    </g>
    <text
       xml:space="preserve"
       style="font-size:143.90278625px;font-style:normal;font-variant:normal;font-weight:bold;font-stretch:normal;line-height:125%;letter-spacing:0px;word-spacing:0px;fill:#636363;fill-opacity:1;stroke:none;font-family:Daumier Comique 1836;-inkscape-font-specification:Verdana Bold"
       x="25.380562"
       y="719.88037"
       id="text3840"
       sodipodi:linespacing="125%"><tspan
         sodipodi:role="line"
         id="tspan3842"
         x="25.380562"
         y="719.88037"
         style="font-size:50.36597443px;font-style:normal;font-variant:normal;font-weight:bold;font-stretch:normal;fill:#636363;fill-opacity:1;font-family:Verdana;-inkscape-font-specification:Verdana Bold">OFICINA DE MARCENARIA</tspan></text>
  </g>
</svg>
