<?xml version="1.0" encoding="UTF-8" standalone="no"?>
<!-- Created with Inkscape (http://www.inkscape.org/) -->

<svg
   xmlns:dc="http://purl.org/dc/elements/1.1/"
   xmlns:cc="http://creativecommons.org/ns#"
   xmlns:rdf="http://www.w3.org/1999/02/22-rdf-syntax-ns#"
   xmlns:svg="http://www.w3.org/2000/svg"
   xmlns="http://www.w3.org/2000/svg"
   xmlns:sodipodi="http://sodipodi.sourceforge.net/DTD/sodipodi-0.dtd"
   xmlns:inkscape="http://www.inkscape.org/namespaces/inkscape"
   width="744.09448819"
   height="1052.3622047"
   id="svg2"
   version="1.1"
   inkscape:version="0.48.4 r9939"
   sodipodi:docname="logo.svg"
   inkscape:export-filename="/opt/lampp/htdocs/projects/oficina-marcenaria/docs/logo.png"
   inkscape:export-xdpi="295.29001"
   inkscape:export-ydpi="295.29001">
  <defs
     id="defs4">
    <inkscape:path-effect
       effect="bend_path"
       id="path-effect3822"
       is_visible="true"
       bendpath="m 361.9571,710.93798 c 83.5574,0 129.69378,8.64923 129.69378,-52.09283"
       prop_scale="1"
       scale_y_rel="false"
       vertical="false"
       bendpath-nodetypes="cc" />
    <filter
       id="filter5327"
       style="color-interpolation-filters:sRGB;"
       inkscape:label="Drop Shadow">
      <feFlood
         id="feFlood5329"
         flood-opacity="0.8"
         flood-color="rgb(0,0,0)"
         result="flood" />
      <feComposite
         id="feComposite5331"
         in2="SourceGraphic"
         in="flood"
         operator="in"
         result="composite1" />
      <feGaussianBlur
         id="feGaussianBlur5333"
         in="composite"
         stdDeviation="1"
         result="blur" />
      <feOffset
         id="feOffset5335"
         dx="1"
         dy="1"
         result="offset" />
      <feComposite
         id="feComposite5337"
         in2="offset"
         in="SourceGraphic"
         operator="over"
         result="composite2" />
    </filter>
  </defs>
  <sodipodi:namedview
     id="base"
     pagecolor="#ffffff"
     bordercolor="#666666"
     borderopacity="1.0"
     inkscape:pageopacity="0.0"
     inkscape:pageshadow="2"
     inkscape:zoom="1"
     inkscape:cx="328.00328"
     inkscape:cy="457.58515"
     inkscape:document-units="px"
     inkscape:current-layer="g3837"
     showgrid="false"
     showborder="false"
     showguides="true"
     inkscape:guide-bbox="true"
     inkscape:window-width="1366"
     inkscape:window-height="715"
     inkscape:window-x="0"
     inkscape:window-y="30"
     inkscape:window-maximized="1" />
  <metadata
     id="metadata7">
    <rdf:RDF>
      <cc:Work
         rdf:about="">
        <dc:format>image/svg+xml</dc:format>
        <dc:type
           rdf:resource="http://purl.org/dc/dcmitype/StillImage" />
        <dc:title></dc:title>
      </cc:Work>
    </rdf:RDF>
  </metadata>
  <g
     inkscape:label="Layer 1"
     inkscape:groupmode="layer"
     id="layer1">
    <g
       id="g3837"
       inkscape:export-filename="/opt/lampp/htdocs/projects/oficina-marcenaria/img/logo.png"
       inkscape:export-xdpi="295.29001"
       inkscape:export-ydpi="295.29001">
      <g
         transform="matrix(4.1156727,0,0,4.1156727,-1463.7398,-2292.617)"
         style="fill:#636363;fill-opacity:1"
         id="g3825">
        <g
           style="fill:#aa4400;fill-opacity:1"
           id="g3772">
          <g
             id="g3855"
             transform="translate(-6.0743411,328.50037)">
            <g
               id="g3877"
               transform="translate(18.708971,-1.7008155)">
              <path
                 style="fill:#aa4400;fill-opacity:1;stroke:none"
                 d="m 614.6875,1772.9688 c -0.032,11.4533 -0.40631,22.8413 -1.34375,34.0312 l -259.375,0 0,38.0938 253.53125,0 c -0.32924,1.3891 -0.67408,2.7772 -1.03125,4.1562 -3.59162,13.7703 -8.49838,27.0358 -15.125,38.9375 l -237.375,0 0,38.0625 203.90625,0 c -3.84972,2.8732 -7.88078,5.5745 -12.03125,8.0312 -16.29856,9.7169 -35.01702,16.2347 -54.59375,21.1563 -31.18252,7.814 -63.66952,11.2578 -96.8125,12.9063 l -41.52941,0 0.0325,38.0624 416.99687,0 0,-38.0624 -207,0 c 0.75165,-0.426 1.50222,-0.8445 2.25,-1.2813 17.77989,-10.4452 33.75051,-24.1994 46.5625,-40.8125 l 158.1875,0 0,-38.0625 -136.375,0 c 4.05618,-9.6525 7.28254,-19.5453 9.78125,-29.5 1.14086,-4.5183 2.15798,-9.0595 3.0625,-13.5937 l 123.53125,0 0,-38.0938 -118.375,0 c 0.88401,-11.4108 1.24796,-22.7862 1.21875,-34.0312 z"
                 transform="matrix(0.24297365,0,0,0.24297365,337.67015,228.0592)"
                 id="rect3859"
                 inkscape:connector-curvature="0"
                 sodipodi:nodetypes="cccccccccccccccccccccccccccccc"
                 inkscape:export-filename="/opt/lampp/htdocs/projects/oficina-marcenaria/img/icone.png"
                 inkscape:export-xdpi="295.29001"
                 inkscape:export-ydpi="295.29001" />
            </g>
          </g>
        </g>
      </g>
      <g
         id="g3899"
         style="fill:#ffffff;filter:url(#filter5327)"
         inkscape:export-filename="/opt/lampp/htdocs/projects/oficina-marcenaria/img/logox320.png"
         inkscape:export-xdpi="32.071602"
         inkscape:export-ydpi="32.071602">
        <g
           id="g3848"
           style="fill:#ffffff;fill-opacity:1"
           transform="matrix(4.1156727,0,0,4.1156727,-1463.7398,-2292.617)">
          <rect
             y="667.56293"
             x="361.95709"
             height="9.25"
             width="181.25"
             id="rect3801"
             style="fill:#ffffff;fill-opacity:1;stroke:none" />
          <rect
             style="fill:#ffffff;fill-opacity:1;stroke:none"
             id="rect3803"
             width="181.25"
             height="9.25"
             x="361.95709"
             y="680.47961" />
          <rect
             y="693.3963"
             x="361.95709"
             height="9.25"
             width="181.25"
             id="rect3805"
             style="fill:#ffffff;fill-opacity:1;stroke:none" />
          <rect
             style="fill:#ffffff;fill-opacity:1;stroke:none"
             id="rect3807"
             width="181.25"
             height="9.25"
             x="361.95709"
             y="706.31293" />
          <path
             inkscape:original-d="m 361.9571,706.31298 181.25,0 0,9.25 -181.25,0 z"
             inkscape:path-effect="#path-effect3822"
             inkscape:connector-curvature="0"
             id="rect3819"
             d="m 361.9571,706.31298 c 18.59944,2.6e-4 37.09052,0.56178 55.47566,0.40252 13.60196,-0.15025 27.03039,-0.38687 39.59588,-3.53564 0,0 0,0 0,0 4.75663,-1.19583 9.30945,-2.78237 13.26957,-5.1433 3.56623,-2.11097 6.73156,-4.87464 9.09979,-8.14927 0,0 0,-10e-6 0,-10e-6 2.6468,-3.58461 4.43227,-7.93149 5.62619,-12.50898 1.52369,-5.88297 1.98387,-12.1548 2.00169,-18.53315 l 9.25,0 c 0.0178,6.85205 -0.53831,13.8871 -2.28955,20.82281 -1.37279,5.46911 -3.65332,10.86806 -7.11136,15.66518 -3.20252,4.37381 -7.29452,7.97845 -11.87979,10.67217 -5.01335,2.92825 -10.39225,4.85185 -15.74779,6.15451 -10e-6,0 -10e-6,0 -10e-6,0 -13.91735,3.39452 -28.05885,3.72103 -41.73508,3.80534 -18.62527,0.15897 -37.14286,-0.40244 -55.5552,-0.40218 0,-3.08333 0,-6.16667 0,-9.25 z"
             style="fill:#ffffff;fill-opacity:1;stroke:none" />
        </g>
        <text
           xml:space="preserve"
           style="font-size:143.90278624999999124px;font-style:normal;font-variant:normal;font-weight:bold;font-stretch:normal;line-height:125%;letter-spacing:0px;word-spacing:0px;fill:#ffffff;fill-opacity:1;stroke:none;font-family:Daumier Comique 1836;-inkscape-font-specification:Verdana Bold"
           x="25.380562"
           y="719.88037"
           id="text3840"
           sodipodi:linespacing="125%"
           inkscape:export-filename="/opt/lampp/htdocs/projects/oficina-marcenaria/img/logo.png"
           inkscape:export-xdpi="295.29001"
           inkscape:export-ydpi="295.29001"><tspan
             sodipodi:role="line"
             id="tspan3842"
             x="25.380562"
             y="719.88037"
             style="font-size:50.36597443000000851px;font-style:normal;font-variant:normal;font-weight:bold;font-stretch:normal;fill:#ffffff;fill-opacity:1;font-family:Verdana;-inkscape-font-specification:Verdana Bold">OFICINA DE MARCENARIA</tspan></text>
      </g>
    </g>
  </g>
</svg>
